<svg aria-hidden="true" style="position: absolute; width: 0; height: 0; overflow: hidden;" version="1.1" xmlns="http://www.w3.org/2000/svg" xmlns:xlink="http://www.w3.org/1999/xlink">
<defs>
<symbol id="icon-header-polygon" viewBox="0 0 33 32">
<path fill="#a2c2f7" style="fill: var(--color1, #a2c2f7)" d="M4.733 3.772c0.792-2.287 2.966-3.805 5.386-3.761l13.435 0.246c2.423 0.044 4.541 1.645 5.246 3.963l3.906 12.845c0.704 2.317-0.163 4.824-2.148 6.21l-11.023 7.698c-1.985 1.386-4.638 1.337-6.57-0.122l-10.714-8.091c-1.934-1.46-2.707-4-1.914-6.29l4.396-12.698z"></path>
</symbol>
<symbol id="icon-design-polygon-left" viewBox="0 0 33 32">
<path fill="#f7d54d" style="fill: var(--color2, #f7d54d)" d="M22.611 0.019c0.015-0.001 0.032-0.001 0.049-0.001 0.447 0 0.849 0.195 1.125 0.504l0.001 0.001 8.89 10.006c0.236 0.265 0.38 0.616 0.38 1.001 0 0.093-0.008 0.184-0.025 0.272l0.001-0.009-2.28 12.852c-0.086 0.47-0.38 0.858-0.781 1.070l-0.008 0.004-11.716 6.083c-0.201 0.107-0.441 0.169-0.694 0.169-0.215 0-0.419-0.045-0.604-0.126l0.010 0.004-12.373-5.316c-0.413-0.181-0.724-0.529-0.85-0.957l-0.003-0.011-3.652-12.686c-0.037-0.125-0.059-0.268-0.059-0.417 0-0.337 0.111-0.648 0.297-0.899l-0.003 0.004 7.753-10.5c0.268-0.36 0.686-0.595 1.16-0.611l0.002-0 13.378-0.438z"></path>
</symbol>
<symbol id="icon-design-polygon-right" viewBox="0 0 33 32">
<path fill="#2190e8" style="fill: var(--color3, #2190e8)" d="M13.591 0.226c0.223-0.139 0.493-0.221 0.783-0.221 0.172 0 0.337 0.029 0.491 0.082l-0.011-0.003 12.591 4.266c0.435 0.15 0.772 0.483 0.926 0.905l0.003 0.010 4.349 12.212c0.055 0.149 0.087 0.322 0.087 0.502 0 0.302-0.090 0.583-0.243 0.818l0.004-0.006-7.121 11.008c-0.241 0.368-0.631 0.621-1.082 0.673l-0.007 0.001-13.291 1.493c-0.050 0.006-0.108 0.009-0.167 0.009-0.406 0-0.775-0.162-1.045-0.425l0 0-9.387-9.153c-0.279-0.272-0.452-0.651-0.452-1.071 0-0.062 0.004-0.124 0.011-0.184l-0.001 0.007 1.53-12.872c0.057-0.466 0.321-0.861 0.697-1.095l0.006-0.004 11.33-6.954z"></path>
</symbol>
<symbol id="icon-finish-polygon" viewBox="0 0 32 32">
<path fill="#ffd700" style="fill: var(--color4, #ffd700)" d="M23.983 2.457c0.754 0.157 1.374 0.632 1.723 1.276l0.007 0.013 5.738 10.716c0.19 0.349 0.302 0.765 0.302 1.207 0 0.366-0.077 0.714-0.216 1.029l0.006-0.016-4.679 10.852c-0.314 0.727-0.946 1.267-1.711 1.461l-11.568 2.927c-0.186 0.049-0.4 0.077-0.62 0.077-0.569 0-1.095-0.188-1.517-0.506l0.007 0.005-9.798-7.3c-0.594-0.447-0.984-1.137-1.021-1.919l-0-0.006-0.561-11.964c-0.002-0.036-0.003-0.078-0.003-0.121 0-0.778 0.348-1.475 0.896-1.944l0.003-0.003 8.99-7.64c0.439-0.375 1.013-0.604 1.641-0.604 0.178 0 0.351 0.018 0.519 0.053l-0.016-0.003 11.878 2.409z"></path>
</symbol>
<symbol id="icon-header-little-polygon" viewBox="0 0 32 32">
<path fill="#a2c2f7" style="fill: var(--color1, #a2c2f7)" opacity="0.7" d="M29.238 8.767c2.823 2.893 3.464 7.275 1.586 10.855l-3.837 7.318c-1.879 3.583-5.852 5.549-9.841 4.867l-8.136-1.39c-3.986-0.681-7.081-3.851-7.665-7.853l-1.196-8.183c-0.585-4.001 1.473-7.924 5.098-9.718l7.397-3.66c3.627-1.794 7.996-1.048 10.822 1.848l5.771 5.914z"></path>
</symbol>
<symbol id="icon-slider-img" viewBox="0 0 33 32">
<path d="M13.14 0.393c0.384-0.239 0.85-0.381 1.348-0.381 0.296 0 0.58 0.050 0.845 0.142l-0.018-0.005 11.66 3.951c0.749 0.259 1.331 0.833 1.595 1.559l0.006 0.018 4.010 11.263c0.095 0.257 0.149 0.555 0.149 0.865 0 0.52-0.154 1.005-0.419 1.41l0.006-0.010-6.58 10.172c-0.415 0.634-1.087 1.070-1.864 1.16l-0.012 0.001-12.321 1.385c-0.086 0.010-0.186 0.016-0.288 0.016-0.7 0-1.336-0.279-1.8-0.733l0.001 0-8.673-8.458c-0.48-0.469-0.778-1.122-0.778-1.845 0-0.107 0.007-0.213 0.019-0.317l-0.001 0.012 1.411-11.872c0.098-0.804 0.554-1.484 1.2-1.886l0.011-0.006 10.493-6.441z"></path>
</symbol>
<symbol id="icon-travels-polygon" viewBox="0 0 32 32">
<path fill="#4c87d5" style="fill: var(--color6, #4c87d5)" d="M23.921 2.548c0.753 0.156 1.372 0.63 1.722 1.271l0.007 0.013 5.733 10.678c0.19 0.348 0.302 0.762 0.302 1.202 0 0.365-0.077 0.712-0.215 1.026l0.006-0.016-4.675 10.814c-0.316 0.719-0.936 1.255-1.692 1.452l-0.018 0.004-11.557 2.917c-0.186 0.049-0.399 0.077-0.62 0.077-0.568 0-1.093-0.188-1.516-0.504l0.007 0.005-9.788-7.274c-0.593-0.444-0.983-1.132-1.020-1.912l-0-0.006-0.56-11.922c-0.002-0.036-0.003-0.078-0.003-0.12 0-0.776 0.347-1.471 0.895-1.938l0.004-0.003 8.981-7.614c0.439-0.374 1.012-0.602 1.639-0.602 0.178 0 0.351 0.018 0.518 0.053l-0.016-0.003 11.866 2.401z"></path>
</symbol>
</defs>
</svg>
